<?xml version="1.0" encoding="utf-8"?>
<!-- Generator: Adobe Illustrator 18.1.0, SVG Export Plug-In . SVG Version: 6.00 Build 0)  -->
<svg version="1.1" id="Calque_1" xmlns="http://www.w3.org/2000/svg" xmlns:xlink="http://www.w3.org/1999/xlink" x="0px" y="0px"
	 viewBox="0 0 250 500" enable-background="new 0 0 250 500" xml:space="preserve">
<g id="igqT7P.tif">
	<g>
		<path fill="#CF4646" d="M220.1,282.1c-4,3.3-6.5,6-9.5,7.7c-4.5,2.7-9.2,5-14.2,6.7c-4,1.3-8.3,0.7-11-3.3
			c-2.5-3.8-0.7-7.5,1.7-10.5c4-5.5,8.3-10.7,12.3-16.2c1.5-2,2.7-4.2,4.2-6.8c-5.2-1.5-8.5,0.3-10.7,3
			c-5.5,6.7-11.3,13.5-15.2,21.1c-5.5,11-9.5,22.8-14.2,34.1c-1,2.5-2,5.7-4,7.2c-1.8,1.5-5.2,2.5-7.3,1.7c-1.3-0.5-2.7-4.5-2.2-6.5
			c1-4.3,2.8-8.3,4.7-12.5c3-6.8,6.2-13.5,9.8-21.3c-15.7,12-21.1,12.7-27.6,5c-4.8,1.7-9.3,4.3-14,4.5c-7.2,0.3-6.2-6-6.3-11.2
			c-7.7,8.2-12.2,10.8-18.6,11.3c-8,0.7-13.5-4.3-11.2-12c3.5-11.5,8-22.6,12.5-33.8c1.3-3.3,4.7-4.8,8.2-3.2c4,1.8,2.7,5,1.3,8
			c-2.8,5.8-5.8,11.5-8,17.5c-1.2,3.2-1.8,9-0.5,9.8c4.2,2.3,8.2-1,10.3-4.3c4.8-7.2,8.8-15,13.2-22.5c1.3-2.3,1.8-5,3.5-7
			c1-1.2,3.5-2,5.2-1.7c1.3,0.3,2.8,2.5,3,4c0.2,2-0.5,4.2-1.2,6.2c-2.2,6-5,11.8-7,18c-0.8,2.8-0.5,6-0.7,9c3.3-1.2,6.7-2,9.8-3.7
			c1.2-0.7,1.8-2.7,2.5-4.2c8.2-20.8,16.3-41.8,24.6-62.6c2-5,5.7-7.2,9-5.3c4.3,2.5,2.8,6,1.5,9.5c-0.2,0.3-0.3,0.7-0.5,0.8
			c-7.5,18.3-15,36.6-22.5,54.9c-1.2,3-1.8,6.2-2.8,9.2c0.3,0.3,0.7,0.7,1,1c1.8-0.7,4-1,5.5-2.2c4.5-3.3,9.2-6.7,13-10.5
			c2.8-2.8,4.7-6.5,6.7-10c1.8-3.3,3-7,5-10.2c0.7-1.2,3.2-2.2,4.5-1.8c1.3,0.3,2.3,2.3,3,3.8c0.3,0.7,0.2,1.8,0.3,2.7
			c4.3-2.8,8.3-5.8,12.7-8c4.7-2.2,9.5-1.8,13.3,2s2.8,8.5,0.3,12.3c-4,6.2-8.7,12-13,18c-1,1.5-2.2,3-3.2,4.5c1.8,0.5,3,0.7,3.8,0
			c6.7-5.3,13.3-10.7,20-16.3c1-0.8,1.3-2.7,1.5-4c1-9,2-18,3-27c3.2-28.8,6.3-57.6,9.5-86.6c0.5-5,0.8-10,1.2-15.2
			c-36.8,10.2-73.8,11-110.7,11c-37.1,0-74.3-0.7-110.9-11c4.2,38.8,8.3,77.4,12.7,116.1c1.5-1.3,2-2.7,2.7-4
			c4.5-11.5,10.2-22.3,18.6-31.3c5-5.2,10.7-10,16.8-13.5c10.8-6,23.5-1,28.8,10c2.2,4.3,1.2,9.7-2.2,11c-4.7,2-5.8-2.2-7.8-4.8
			c-0.2-0.3-0.3-0.5-0.5-0.8c-4.7-7.7-9.7-8.7-16.7-3.3c-2.8,2.2-5.5,4.7-7.8,7.5c-10,12.3-17,26.3-20.6,41.8c-1,4.2-1.2,8.5-1,12.8
			c0.2,7.3,4.3,9.8,10.3,5.7c10.7-7.2,19.8-16,23.8-28.8c1.2-3.7,2-7.5,4-10.7c1.2-1.8,4.5-3.5,6.5-3.3c1.3,0.2,3,3.8,3.3,6
			c0.3,2.7-0.5,5.5-1.3,8.2c-5.2,16.5-10.5,33-15.7,49.5c-1.8,5.7-5.2,8.8-7.8,7.2c-4.3-2.5-2.8-6.5-2-10.2
			c1.5-5.8,3.2-11.8,5.2-18.6c-9.8,8.3-18,17.8-32,14.3c0,1.7-0.2,3,0,4.2c1.8,19,4,38,5.5,57.1c1.3,17,1.3,17.3,17.6,22
			c0.3,0.2,0.7,0.2,1,0.2c39.3,10.3,78.9,11.3,118.7,4.2c10.3-1.8,20.3-5.5,30.5-8.3c3.3-1,5.2-3.2,5.7-7.2
			c2-18.6,4.3-37.3,6.5-55.9C217.9,303,218.9,293.2,220.1,282.1z M44.7,383.8c4,6.8,7.7,12.8,11,19.1c1.3,2.7,2.5,5.8,2.7,8.8
			c1.7,20.3,2.8,40.8,4.3,61.3c1.2,16.3,2.7,18.3,18,22c25.6,6.2,51.6,6.3,77.6,2.2c7.5-1.2,15-3.8,22.1-6.5
			c2.3-0.8,4.5-3.8,5.3-6.3c1-3.7,0.8-7.8,1.2-11.8c1.2-20.1,2-40.1,3.3-60.3c0.3-4.2,2-8.2,3.8-12c2.7-5.5,6-10.8,9.2-16.5
			C150.3,399.1,98,399.1,44.7,383.8z"/>
		<path fill="#CF4646" d="M237.9,11.7c-18.1,19.1-36.3,38.3-54.4,57.4c-1.2,1.3-2.3,3-2.7,4.7c-3,11.7-5.8,23.3-8.7,35
			c-0.2,0.8-0.2,1.7-0.2,2.8c8.3,0.8,16.7,1.2,24.6,2.5c11.3,1.8,22.6,4.2,33.8,6.7c2.3,0.5,4.3,3.2,6.3,4.7c-2.2,1.7-4.2,4.5-6.5,5
			c-11.3,2.7-22.8,5.2-34.3,6.7c-35.3,4.3-70.8,4.2-106.2,2.8c-21.6-0.7-43.1-2.2-64.3-7.5c-7.7-1.8-9.8-3-13.3-7.5
			c2.8-1.5,5.2-3.7,8-4.3c11-2.5,21.8-5,33-6.3c30.6-3.7,61.6-4.5,92.4-3.3c4.7,0.2,6.3-1.5,7.3-5.7c3-12.8,6.5-25.5,10-38.3
			c0.7-2.3,2-4.8,3.7-6.7c17.8-18.8,35.6-37.6,53.4-56.4c4.5-4.8,7-5,12-0.5c2.2,2,4,4.3,6,6.5C237.9,10.3,237.9,11,237.9,11.7z
			 M156.8,135c4-0.8,7.8-1.5,11.5-2.7c0.8-0.2,1.3-1.8,2-2.8c-1.2-0.2-2.5-0.7-3.7-0.3c-6.7,2-13.2,2.2-19.8-0.2
			c-1-0.3-2.3,0.3-3.7,0.5c0.7,1,1,2.7,1.8,3C149,133.5,152.8,134.2,156.8,135z"/>
		<path fill="#CF4646" d="M220.1,282.1c-1.2,11.3-2.2,21.1-3.3,30.8c-2.2,18.6-4.5,37.3-6.5,55.9c-0.5,4-2.2,6.2-5.7,7.2
			c-10.2,3-20.1,6.5-30.5,8.3c-39.8,7.3-79.4,6.3-118.7-4.2c-0.3-0.2-0.7-0.2-1-0.2c-16.3-4.7-16.3-5-17.6-22
			c-1.5-19-3.7-38.1-5.5-57.1c-0.2-1.3,0-2.5,0-4.2c14.2,3.7,22.1-6,32-14.3c-1.8,6.8-3.7,12.7-5.2,18.6c-1,3.7-2.3,7.7,2,10.2
			c2.7,1.5,6-1.7,7.8-7.2c5.3-16.5,10.5-33,15.7-49.5c0.8-2.7,1.7-5.5,1.3-8.2c-0.2-2.2-2-6-3.3-6c-2.2-0.2-5.3,1.5-6.5,3.3
			c-2,3.2-2.8,7-4,10.7c-4.2,12.8-13.2,21.6-23.8,28.8c-6,4-10.2,1.7-10.3-5.7c-0.2-4.2,0.2-8.7,1-12.8
			c3.5-15.5,10.7-29.5,20.6-41.8c2.3-2.8,5-5.3,7.8-7.5c7-5.3,12-4.2,16.7,3.3c0.2,0.3,0.3,0.7,0.5,0.8c2,2.7,3.2,6.8,7.8,4.8
			c3.3-1.5,4.3-6.8,2.2-11c-5.5-11-18-16-28.8-10c-6.2,3.3-12,8.3-16.8,13.5c-8.5,9-14.2,19.8-18.6,31.3c-0.5,1.3-1.2,2.7-2.7,4
			c-4.2-38.6-8.3-77.3-12.7-116.1c36.8,10.3,73.9,11,110.9,11s73.9-0.7,110.7-11c-0.3,5.2-0.7,10.2-1.2,15.2
			c-3.2,28.8-6.3,57.6-9.5,86.6c-1,9-1.8,18-3,27c-0.2,1.3-0.5,3.2-1.5,4c-6.5,5.5-13.2,11-20,16.3c-0.8,0.7-2,0.7-3.8,0
			c1-1.5,2.2-3,3.2-4.5c4.3-6,9-11.8,13-18c2.5-3.8,3.7-8.5-0.3-12.3c-3.8-3.8-8.7-4.2-13.3-2c-4.3,2.2-8.3,5.2-12.7,8
			c0-0.8,0.2-2-0.3-2.7c-0.8-1.5-1.8-3.5-3-3.8c-1.3-0.3-3.8,0.7-4.5,1.8c-2,3.2-3.2,6.8-5,10.2c-2,3.5-3.8,7.3-6.7,10
			c-4,4-8.5,7.3-13,10.5c-1.5,1.2-3.7,1.5-5.5,2.2c-0.3-0.3-0.7-0.7-1-1c1-3,1.7-6.2,2.8-9.2c7.5-18.3,15-36.6,22.5-54.9
			c0.2-0.3,0.3-0.5,0.5-0.8c1.3-3.5,3-7.2-1.5-9.5c-3.3-1.8-7,0.3-9,5.3c-8.3,20.8-16.3,41.8-24.6,62.6c-0.7,1.5-1.2,3.5-2.5,4.2
			c-3,1.5-6.5,2.5-9.8,3.7c0.2-3-0.2-6.2,0.7-9c2-6.2,4.7-12,7-18c0.7-2,1.3-4.2,1.2-6.2c-0.2-1.5-1.7-3.7-3-4
			c-1.5-0.3-4,0.5-5.2,1.7c-1.7,2-2.2,4.7-3.5,7c-4.2,7.5-8.3,15.3-13.2,22.5c-2.2,3.3-6.2,6.8-10.3,4.3c-1.3-0.8-0.5-6.7,0.5-9.8
			c2.2-6,5.2-11.7,8-17.5c1.5-3,2.7-6.2-1.3-8c-3.7-1.7-6.8-0.2-8.2,3.2c-4.5,11.2-9,22.3-12.5,33.8c-2.3,7.7,3.2,12.7,11.2,12
			c6.5-0.7,11-3.3,18.6-11.3c0.3,5-0.7,11.5,6.3,11.2c4.7-0.3,9.2-2.8,14-4.5c6.3,7.7,12,6.8,27.6-5c-3.5,7.7-6.8,14.5-9.8,21.3
			c-1.8,4-3.8,8.2-4.7,12.5c-0.5,2,0.8,6,2.2,6.5c2,0.7,5.5-0.2,7.3-1.7c2-1.7,2.8-4.7,4-7.2c4.7-11.5,8.7-23.1,14.2-34.1
			c3.8-7.7,9.7-14.3,15.2-21.1c2.2-2.7,5.7-4.5,10.7-3c-1.5,2.5-2.7,4.8-4.2,6.8c-4,5.3-8.3,10.7-12.3,16.2
			c-2.3,3.2-4.2,6.7-1.7,10.5c2.7,4,7,4.7,11,3.3c5-1.7,9.7-4,14.2-6.7C213.6,287.9,216.1,285.2,220.1,282.1z"/>
		<path fill="#CF4646" d="M44.7,383.8c53.3,15.3,105.6,15.3,158.7-0.2c-3.2,5.7-6.5,10.8-9.2,16.5c-1.8,3.8-3.5,8-3.8,12
			c-1.3,20.1-2.3,40.1-3.3,60.3c-0.2,4,0,8-1.2,11.8c-0.7,2.5-3,5.5-5.3,6.3c-7.2,2.7-14.7,5.3-22.1,6.5c-26,4.2-51.9,4-77.6-2.2
			c-15.5-3.7-16.8-5.7-18-22c-1.5-20.5-2.7-40.8-4.3-61.3c-0.2-3-1.3-6.2-2.7-8.8C52.6,396.8,48.7,390.8,44.7,383.8z"/>
	</g>
</g>
</svg>
