<?xml version="1.0" encoding="utf-8"?>
<!-- Generator: Adobe Illustrator 18.1.0, SVG Export Plug-In . SVG Version: 6.00 Build 0)  -->
<svg version="1.1" id="Calque_1" xmlns="http://www.w3.org/2000/svg" xmlns:xlink="http://www.w3.org/1999/xlink" x="0px" y="0px"
	 viewBox="0 0 135.6 300.3" enable-background="new 0 0 135.6 300.3" xml:space="preserve">
<g id="igqT7P.tif">
	<g>
		<path fill="#FFFFFF" d="M124.9,169.4c-2.4,2-3.9,3.6-5.7,4.6c-2.7,1.6-5.5,3-8.5,4c-2.4,0.8-5,0.4-6.6-2c-1.5-2.3-0.4-4.5,1-6.3
			c2.4-3.3,5-6.4,7.4-9.7c0.9-1.2,1.6-2.5,2.5-4.1c-3.1-0.9-5.1,0.2-6.4,1.8c-3.3,4-6.8,8.1-9.1,12.7c-3.3,6.6-5.7,13.7-8.5,20.5
			c-0.6,1.5-1.2,3.4-2.4,4.3c-1.1,0.9-3.1,1.5-4.4,1c-0.8-0.3-1.6-2.7-1.3-3.9c0.6-2.6,1.7-5,2.8-7.5c1.8-4.1,3.7-8.1,5.9-12.8
			c-9.4,7.2-12.7,7.6-16.6,3c-2.9,1-5.6,2.6-8.4,2.7c-4.3,0.2-3.7-3.6-3.8-6.7c-4.6,4.9-7.3,6.5-11.2,6.8c-4.8,0.4-8.1-2.6-6.7-7.2
			c2.1-6.9,4.8-13.6,7.5-20.3c0.8-2,2.8-2.9,4.9-1.9c2.4,1.1,1.6,3,0.8,4.8c-1.7,3.5-3.5,6.9-4.8,10.5c-0.7,1.9-1.1,5.4-0.3,5.9
			c2.5,1.4,4.9-0.6,6.2-2.6c2.9-4.3,5.3-9,7.9-13.5c0.8-1.4,1.1-3,2.1-4.2c0.6-0.7,2.1-1.2,3.1-1c0.8,0.2,1.7,1.5,1.8,2.4
			c0.1,1.2-0.3,2.5-0.7,3.7c-1.3,3.6-3,7.1-4.2,10.8c-0.5,1.7-0.3,3.6-0.4,5.4c2-0.7,4-1.2,5.9-2.2c0.7-0.4,1.1-1.6,1.5-2.5
			c4.9-12.5,9.8-25.1,14.8-37.6c1.2-3,3.4-4.3,5.4-3.2c2.6,1.5,1.7,3.6,0.9,5.7c-0.1,0.2-0.2,0.4-0.3,0.5c-4.5,11-9,22-13.5,33
			c-0.7,1.8-1.1,3.7-1.7,5.5c0.2,0.2,0.4,0.4,0.6,0.6c1.1-0.4,2.4-0.6,3.3-1.3c2.7-2,5.5-4,7.8-6.3c1.7-1.7,2.8-3.9,4-6
			c1.1-2,1.8-4.2,3-6.1c0.4-0.7,1.9-1.3,2.7-1.1c0.8,0.2,1.4,1.4,1.8,2.3c0.2,0.4,0.1,1.1,0.2,1.6c2.6-1.7,5-3.5,7.6-4.8
			c2.8-1.3,5.7-1.1,8,1.2c2.3,2.3,1.7,5.1,0.2,7.4c-2.4,3.7-5.2,7.2-7.8,10.8c-0.6,0.9-1.3,1.8-1.9,2.7c1.1,0.3,1.8,0.4,2.3,0
			c4-3.2,8-6.4,12-9.8c0.6-0.5,0.8-1.6,0.9-2.4c0.6-5.4,1.2-10.8,1.8-16.2c1.9-17.3,3.8-34.6,5.7-52c0.3-3,0.5-6,0.7-9.1
			c-22.1,6.1-44.3,6.6-66.5,6.6c-22.3,0-44.6-0.4-66.6-6.6c2.5,23.3,5,46.5,7.6,69.7c0.9-0.8,1.2-1.6,1.6-2.4
			c2.7-6.9,6.1-13.4,11.2-18.8c3-3.1,6.4-6,10.1-8.1c6.5-3.6,14.1-0.6,17.3,6c1.3,2.6,0.7,5.8-1.3,6.6c-2.8,1.2-3.5-1.3-4.7-2.9
			c-0.1-0.2-0.2-0.3-0.3-0.5c-2.8-4.6-5.8-5.2-10-2c-1.7,1.3-3.3,2.8-4.7,4.5c-6,7.4-10.2,15.8-12.4,25.1c-0.6,2.5-0.7,5.1-0.6,7.7
			c0.1,4.4,2.6,5.9,6.2,3.4c6.4-4.3,11.9-9.6,14.3-17.3c0.7-2.2,1.2-4.5,2.4-6.4c0.7-1.1,2.7-2.1,3.9-2c0.8,0.1,1.8,2.3,2,3.6
			c0.2,1.6-0.3,3.3-0.8,4.9c-3.1,9.9-6.3,19.8-9.4,29.7c-1.1,3.4-3.1,5.3-4.7,4.3c-2.6-1.5-1.7-3.9-1.2-6.1
			c0.9-3.5,1.9-7.1,3.1-11.2c-5.9,5-10.8,10.7-19.2,8.6c0,1-0.1,1.8,0,2.5c1.1,11.4,2.4,22.8,3.3,34.3c0.8,10.2,0.8,10.4,10.6,13.2
			c0.2,0.1,0.4,0.1,0.6,0.1c23.6,6.2,47.4,6.8,71.3,2.5c6.2-1.1,12.2-3.3,18.3-5c2-0.6,3.1-1.9,3.4-4.3c1.2-11.2,2.6-22.4,3.9-33.6
			C123.6,182,124.2,176.1,124.9,169.4z M19.6,230.5c2.4,4.1,4.6,7.7,6.6,11.5c0.8,1.6,1.5,3.5,1.6,5.3c1,12.2,1.7,24.5,2.6,36.8
			c0.7,9.8,1.6,11,10.8,13.2c15.4,3.7,31,3.8,46.6,1.3c4.5-0.7,9-2.3,13.3-3.9c1.4-0.5,2.7-2.3,3.2-3.8c0.6-2.2,0.5-4.7,0.7-7.1
			c0.7-12.1,1.2-24.1,2-36.2c0.2-2.5,1.2-4.9,2.3-7.2c1.6-3.3,3.6-6.5,5.5-9.9C83,239.7,51.6,239.7,19.6,230.5z"/>
		<path fill="#FFFFFF" d="M135.6,7c-10.9,11.5-21.8,23-32.7,34.5c-0.7,0.8-1.4,1.8-1.6,2.8c-1.8,7-3.5,14-5.2,21
			C96,65.8,96,66.3,96,67c5,0.5,10,0.7,14.8,1.5c6.8,1.1,13.6,2.5,20.3,4c1.4,0.3,2.6,1.9,3.8,2.8c-1.3,1-2.5,2.7-3.9,3
			c-6.8,1.6-13.7,3.1-20.6,4c-21.2,2.6-42.5,2.5-63.8,1.7C33.6,83.6,20.7,82.7,8,79.5c-4.6-1.1-5.9-1.8-8-4.5
			c1.7-0.9,3.1-2.2,4.8-2.6c6.6-1.5,13.1-3,19.8-3.8c18.4-2.2,37-2.7,55.5-2c2.8,0.1,3.8-0.9,4.4-3.4c1.8-7.7,3.9-15.3,6-23
			c0.4-1.4,1.2-2.9,2.2-4c10.7-11.3,21.4-22.6,32.1-33.9c2.7-2.9,4.2-3,7.2-0.3c1.3,1.2,2.4,2.6,3.6,3.9
			C135.6,6.2,135.6,6.6,135.6,7z M86.9,81.1c2.4-0.5,4.7-0.9,6.9-1.6c0.5-0.1,0.8-1.1,1.2-1.7c-0.7-0.1-1.5-0.4-2.2-0.2
			c-4,1.2-7.9,1.3-11.9-0.1c-0.6-0.2-1.4,0.2-2.2,0.3c0.4,0.6,0.6,1.6,1.1,1.8C82.2,80.2,84.5,80.6,86.9,81.1z"/>
		<path fill="#FFFFFF" d="M124.9,169.4c-0.7,6.8-1.3,12.7-2,18.5c-1.3,11.2-2.7,22.4-3.9,33.6c-0.3,2.4-1.3,3.7-3.4,4.3
			c-6.1,1.8-12.1,3.9-18.3,5c-23.9,4.4-47.7,3.8-71.3-2.5c-0.2-0.1-0.4-0.1-0.6-0.1c-9.8-2.8-9.8-3-10.6-13.2
			c-0.9-11.4-2.2-22.9-3.3-34.3c-0.1-0.8,0-1.5,0-2.5c8.5,2.2,13.3-3.6,19.2-8.6c-1.1,4.1-2.2,7.6-3.1,11.2
			c-0.6,2.2-1.4,4.6,1.2,6.1c1.6,0.9,3.6-1,4.7-4.3c3.2-9.9,6.3-19.8,9.4-29.7c0.5-1.6,1-3.3,0.8-4.9c-0.1-1.3-1.2-3.6-2-3.6
			c-1.3-0.1-3.2,0.9-3.9,2c-1.2,1.9-1.7,4.2-2.4,6.4c-2.5,7.7-7.9,13-14.3,17.3c-3.6,2.4-6.1,1-6.2-3.4c-0.1-2.5,0.1-5.2,0.6-7.7
			c2.1-9.3,6.4-17.7,12.4-25.1c1.4-1.7,3-3.2,4.7-4.5c4.2-3.2,7.2-2.5,10,2c0.1,0.2,0.2,0.4,0.3,0.5c1.2,1.6,1.9,4.1,4.7,2.9
			c2-0.9,2.6-4.1,1.3-6.6c-3.3-6.6-10.8-9.6-17.3-6c-3.7,2-7.2,5-10.1,8.1c-5.1,5.4-8.5,11.9-11.2,18.8c-0.3,0.8-0.7,1.6-1.6,2.4
			c-2.5-23.2-5-46.4-7.6-69.7c22.1,6.2,44.4,6.6,66.6,6.6c22.2,0,44.4-0.4,66.5-6.6c-0.2,3.1-0.4,6.1-0.7,9.1
			c-1.9,17.3-3.8,34.6-5.7,52c-0.6,5.4-1.1,10.8-1.8,16.2c-0.1,0.8-0.3,1.9-0.9,2.4c-3.9,3.3-7.9,6.6-12,9.8c-0.5,0.4-1.2,0.4-2.3,0
			c0.6-0.9,1.3-1.8,1.9-2.7c2.6-3.6,5.4-7.1,7.8-10.8c1.5-2.3,2.2-5.1-0.2-7.4c-2.3-2.3-5.2-2.5-8-1.2c-2.6,1.3-5,3.1-7.6,4.8
			c0-0.5,0.1-1.2-0.2-1.6c-0.5-0.9-1.1-2.1-1.8-2.3c-0.8-0.2-2.3,0.4-2.7,1.1c-1.2,1.9-1.9,4.1-3,6.1c-1.2,2.1-2.3,4.4-4,6
			c-2.4,2.4-5.1,4.4-7.8,6.3c-0.9,0.7-2.2,0.9-3.3,1.3c-0.2-0.2-0.4-0.4-0.6-0.6c0.6-1.8,1-3.7,1.7-5.5c4.5-11,9-22,13.5-33
			c0.1-0.2,0.2-0.3,0.3-0.5c0.8-2.1,1.8-4.3-0.9-5.7c-2-1.1-4.2,0.2-5.4,3.2c-5,12.5-9.8,25.1-14.8,37.6c-0.4,0.9-0.7,2.1-1.5,2.5
			c-1.8,0.9-3.9,1.5-5.9,2.2c0.1-1.8-0.1-3.7,0.4-5.4c1.2-3.7,2.8-7.2,4.2-10.8c0.4-1.2,0.8-2.5,0.7-3.7c-0.1-0.9-1-2.2-1.8-2.4
			c-0.9-0.2-2.4,0.3-3.1,1c-1,1.2-1.3,2.8-2.1,4.2c-2.5,4.5-5,9.2-7.9,13.5c-1.3,2-3.7,4.1-6.2,2.6c-0.8-0.5-0.3-4,0.3-5.9
			c1.3-3.6,3.1-7,4.8-10.5c0.9-1.8,1.6-3.7-0.8-4.8c-2.2-1-4.1-0.1-4.9,1.9c-2.7,6.7-5.4,13.4-7.5,20.3c-1.4,4.6,1.9,7.6,6.7,7.2
			c3.9-0.4,6.6-2,11.2-6.8c0.2,3-0.4,6.9,3.8,6.7c2.8-0.2,5.5-1.7,8.4-2.7c3.8,4.6,7.2,4.1,16.6-3c-2.1,4.6-4.1,8.7-5.9,12.8
			c-1.1,2.4-2.3,4.9-2.8,7.5c-0.3,1.2,0.5,3.6,1.3,3.9c1.2,0.4,3.3-0.1,4.4-1c1.2-1,1.7-2.8,2.4-4.3c2.8-6.9,5.2-13.9,8.5-20.5
			c2.3-4.6,5.8-8.6,9.1-12.7c1.3-1.6,3.4-2.7,6.4-1.8c-0.9,1.5-1.6,2.9-2.5,4.1c-2.4,3.2-5,6.4-7.4,9.7c-1.4,1.9-2.5,4-1,6.3
			c1.6,2.4,4.2,2.8,6.6,2c3-1,5.8-2.4,8.5-4C121,172.9,122.5,171.3,124.9,169.4z"/>
		<path fill="#FFFFFF" d="M19.6,230.5c32,9.2,63.4,9.2,95.3-0.1c-1.9,3.4-3.9,6.5-5.5,9.9c-1.1,2.3-2.1,4.8-2.3,7.2
			c-0.8,12.1-1.4,24.1-2,36.2c-0.1,2.4,0,4.8-0.7,7.1c-0.4,1.5-1.8,3.3-3.2,3.8c-4.3,1.6-8.8,3.2-13.3,3.9
			c-15.6,2.5-31.2,2.4-46.6-1.3c-9.3-2.2-10.1-3.4-10.8-13.2c-0.9-12.3-1.6-24.5-2.6-36.8c-0.1-1.8-0.8-3.7-1.6-5.3
			C24.3,238.3,22,234.7,19.6,230.5z"/>
	</g>
</g>
</svg>
